<svg xmlns="http://www.w3.org/2000/svg" viewBox="0 0 233.24 233.39"><defs><style>.cls-1{fill:#6cccde;}</style></defs><title>Asset 2</title><g id="Layer_2" data-name="Layer 2"><g id="Layer_1-2" data-name="Layer 1"><path class="cls-1" d="M82.7,23.54a99.11,99.11,0,0,1,127,59.2h0a99.11,99.11,0,0,1-59.2,127h0a99.11,99.11,0,0,1-127-59.2h0a99.15,99.15,0,0,1,59.2-127Zm73.8,7.7A94,94,0,0,0,84.4,28h0a93.84,93.84,0,0,0-53.2,48.8h0a94,94,0,0,0-3.2,72.1h0a93.84,93.84,0,0,0,48.8,53.2h0a94,94,0,0,0,72.1,3.2h0a93.84,93.84,0,0,0,53.2-48.8h0a94,94,0,0,0,3.2-72.1h0a94.17,94.17,0,0,0-48.8-53.2Z"/><path class="cls-1" d="M149.2,10.54l2.5-5.1a115.66,115.66,0,0,0-70.1,0l1.9,5.3A111.49,111.49,0,0,1,149.2,10.54ZM33.6,42.94l-4-3.9A117,117,0,0,0,3.1,143.44l5.3-1.9a111.53,111.53,0,0,1,25.2-98.6Zm40-28.6L71.7,9A116.29,116.29,0,0,0,37,31.44l4,3.9A111.31,111.31,0,0,1,73.6,14.34Zm107.2,11.8a110.09,110.09,0,0,1,34.6,40l5.3-1.9a115.94,115.94,0,0,0-37.4-43.1ZM17,165.64l-5.3,1.9a116.33,116.33,0,0,0,36.6,43.6l2.5-5.1A109.53,109.53,0,0,1,17,165.64Zm186.6,28.7a116.69,116.69,0,0,0,26.1-106.1l-5.3,1.9a111,111,0,0,1-7.2,73.4,113.45,113.45,0,0,1-17.6,26.9ZM82.3,222.24l-2.5,5.1a115.73,115.73,0,0,0,71.1.9l-1.9-5.3A111.44,111.44,0,0,1,82.3,222.24Zm76.5-2.9,1.9,5.3a114.74,114.74,0,0,0,35.5-22.7l-4-3.9A110.85,110.85,0,0,1,158.8,219.34Z"/></g></g></svg>
