<svg xmlns="http://www.w3.org/2000/svg" viewBox="0 0 230.5 233.3"><defs><style>.cls-1{fill:#6cccde;}</style></defs><title>Asset 3</title><g id="Layer_2" data-name="Layer 2"><g id="Layer_1-2" data-name="Layer 1"><path class="cls-1" d="M197.1,32.3,172.2,64.9a75.82,75.82,0,0,1,19.6,41l38.7-14.5A118,118,0,0,0,197.1,32.3Z"/><path class="cls-1" d="M189.3,138.4A74.26,74.26,0,0,1,175.1,165L207,190.3a116.81,116.81,0,0,0,23.5-48.5Z"/><path class="cls-1" d="M56.8,69.8a75.8,75.8,0,0,1,59.7-29.1A74.23,74.23,0,0,1,146.7,47L158.4,7.8A116.52,116.52,0,0,0,27.5,41.3Z"/><path class="cls-1" d="M116.9,233.3a114.59,114.59,0,0,0,36.3-5.9l-7.5-40.6a77.85,77.85,0,0,1-19.2,5.2Z"/><path class="cls-1" d="M60.4,218.9l23.5-33.7a76.51,76.51,0,0,1-10-5.8L49.8,212.2A90,90,0,0,0,60.4,218.9Z"/><path class="cls-1" d="M113.8,192.5a72.88,72.88,0,0,1-16.3-2.4L78.3,226.8A107.12,107.12,0,0,0,98,231.7Z"/><path class="cls-1" d="M62.5,170A74.93,74.93,0,0,1,42,130.9L0,117.1a116.21,116.21,0,0,0,31.3,79.1Z"/></g></g></svg>