<svg xmlns="http://www.w3.org/2000/svg" viewBox="0 0 233.2 233.2"><defs><style>.cls-1{opacity:0.7;}.cls-2{fill:#2e86de;}</style></defs><title>Asset_70</title><g id="Layer_2" data-name="Layer 2"><g id="Layer_1-2" data-name="Layer 1"><g class="cls-1"><path class="cls-2" d="M0,116.6A116.6,116.6,0,0,1,116.6,0h0A116.6,116.6,0,0,1,233.2,116.6h0A116.6,116.6,0,0,1,116.6,233.2h0A116.66,116.66,0,0,1,0,116.6ZM37.9,37.9A110.93,110.93,0,0,0,5.3,116.6h0a110.87,110.87,0,0,0,32.6,78.7h0a110.93,110.93,0,0,0,78.7,32.6h0a110.87,110.87,0,0,0,78.7-32.6h0a110.93,110.93,0,0,0,32.6-78.7h0a110.87,110.87,0,0,0-32.6-78.7h0A110.93,110.93,0,0,0,116.6,5.3h0A110.87,110.87,0,0,0,37.9,37.9Z"/><path class="cls-2" d="M117.7,185.3h1.6l.7,17.8a13.4,13.4,0,0,0-2,.1h0l-.3-17.9Zm-17.5,16.3,3.4-17.5c.5.1,1,.2,1.6.3h0l-3,17.6a14.16,14.16,0,0,1-2-.4Zm31.6-18a8.33,8.33,0,0,0,1.5-.4h0l4.3,17.3c-.6.2-1.3.3-1.9.5h0l-3.9-17.4ZM83.1,196.5,90,180l1.5.6h0L85,197.2c-.7-.2-1.3-.5-1.9-.7Zm62.1-17.4a6.11,6.11,0,0,0,1.4-.7h0l7.8,16.1a14.17,14.17,0,0,1-1.8.8h0l-7.4-16.2Zm-77.8,8.8,10.1-14.7c.4.3.9.6,1.3.9h0L69,189a9.06,9.06,0,0,0-1.6-1.1Zm90.1-16c.4-.3.8-.6,1.3-1h0L169.7,185c-.5.4-1,.8-1.6,1.2h0l-10.6-14.3ZM53.8,176.3,66.7,164a11.41,11.41,0,0,0,1.1,1.1h0L55.2,177.7a9.27,9.27,0,0,0-1.4-1.4Zm114.1-14a10.59,10.59,0,0,0,1-1.2h0l13.6,11.6c-.4.5-.9,1-1.3,1.5h0l-13.3-11.9Zm-125-.2,15.2-9.4a9.13,9.13,0,0,1,.8,1.3h0L44,163.7a11.07,11.07,0,0,1-1.1-1.6Zm133.3-11.3c.3-.5.5-.9.8-1.4h0l15.7,8.5a9.5,9.5,0,0,1-1,1.7h0l-15.5-8.8ZM35.1,146l16.8-6.1.6,1.5h0l-16.6,6.5a10.84,10.84,0,0,1-.8-1.9ZM182,137.8c.2-.5.3-1,.5-1.5h0l17.1,5.1c-.2.6-.4,1.3-.6,1.9h0l-17-5.5Zm3-13.9a8.08,8.08,0,0,0,.1-1.6h0l17.8,1.5c-.1.7-.1,1.3-.2,2h0L185,123.9ZM30.1,121.5l17.8-1c0,.5.1,1.1.1,1.6h0l-17.8,1.4c0-.7-.1-1.3-.1-2Zm154.7-13.3,17.7-2.2a13.55,13.55,0,0,1,.2,2h0l-17.8,1.8a4.19,4.19,0,0,0-.1-1.6ZM30.6,105.6c.1-.7.2-1.3.3-2h0l17.6,2.6c-.1.5-.1,1-.2,1.6h0l-17.7-2.2ZM181.7,94.3h0l16.9-5.8c.2.6.4,1.3.6,1.9h0l-17,5.4c-.2-.5-.3-1-.5-1.5Zm-147-6.1a14.58,14.58,0,0,1,.7-1.9h0l16.7,6.2a8.8,8.8,0,0,0-.5,1.5h0L34.7,88.2Zm141.1-6.7,15.3-9.1c.3.6.7,1.1,1,1.7h0l-15.5,8.8c-.3-.5-.6-1-.8-1.4ZM42.3,72c.3-.6.7-1.1,1-1.7h0l15.1,9.5a9.13,9.13,0,0,0-.8,1.3h0L42.3,72Zm125-1.9L180.4,58c.4.5.9,1,1.3,1.5h0L168.3,71.3c-.3-.4-.7-.8-1-1.2ZM53,57.7a18.48,18.48,0,0,1,1.4-1.4h0L67.2,68.7a11.41,11.41,0,0,1-1.1,1.1h0L53,57.7Zm103.7,3,10.4-14.5c.5.4,1.1.8,1.6,1.2h0L158,61.7c-.5-.4-.9-.7-1.3-1ZM66.4,45.9A15.26,15.26,0,0,1,68,44.8h0L78,59.6c-.4.3-.9.6-1.3.9h0L66.4,45.9Zm77.9,7.7,7.2-16.3c.6.3,1.2.5,1.8.8h0l-7.6,16.2a6.11,6.11,0,0,0-1.4-.7Zm-55.2-.1L82,37.1c.6-.3,1.2-.5,1.8-.8h0l6.8,16.5c-.6.3-1,.5-1.5.7Zm41.7-4.3,3.7-17.5c.7.1,1.3.3,2,.4h0l-4.1,17.4a5,5,0,0,1-1.6-.3Zm-28.2,0L99,31.7c.6-.1,1.3-.3,2-.4h0l3.2,17.6c-.6.1-1.1.2-1.6.3Zm14.1-1.4h0V30h2l-.4,17.8Z"/></g></g></g></svg>