<svg xmlns="http://www.w3.org/2000/svg" viewBox="0 0 239 239"><defs><style>.cls-1{fill:#a9d3ed;}.cls-2{fill:none;}</style></defs><title>Asset 1</title><g id="Layer_2" data-name="Layer 2"><g id="Layer_1-2" data-name="Layer 1"><path class="cls-1" d="M219.19,161a90.06,90.06,0,0,0,5.61-38.37H218a95.86,95.86,0,0,0-1.44-12.58H223a75.75,75.75,0,0,0-2.53-9.32,90.33,90.33,0,0,0-20.27-34l-1.81,2.45a94.38,94.38,0,0,0-74.93-36.92c-1.18,0-2.44.09-3.62.09V17.52A109.56,109.56,0,0,0,24.36,173.61l12.4-8.68a94.73,94.73,0,0,0,128,47l.64,2a89.93,89.93,0,0,0,48.23-41.44l-5.43-3.89a98,98,0,0,0,4.89-11.95Zm-14,5.33-11.49-8.32a65.5,65.5,0,0,1-35.83,32.58l5.79,17.55a90.75,90.75,0,0,1-104.34-17.1A91.72,91.72,0,0,1,40,162.66l9.23-6.42a78.64,78.64,0,0,1-5.61-29.32,79.73,79.73,0,0,1,76.1-79.63V36.34c1.18-.09,2.44-.09,3.62-.09a90.63,90.63,0,0,1,64.16,26.51,97.92,97.92,0,0,1,8.41,9.68L185.17,86.83a67.8,67.8,0,0,1,11.94,21.54,11,11,0,0,1,.45,1.63h15A81.41,81.41,0,0,1,214,122.58H200.1a64.19,64.19,0,0,1-1.9,23.16l11.67,8.51A67.72,67.72,0,0,1,205.16,166.37Z"/><rect class="cls-2" width="239" height="239"/></g></g></svg>
