<svg id="Layer_1" data-name="Layer 1" xmlns="http://www.w3.org/2000/svg" viewBox="0 0 200 200.01"><defs><style>.cls-1,.cls-14,.cls-15,.cls-17,.cls-18,.cls-2,.cls-20,.cls-24,.cls-25,.cls-27,.cls-28,.cls-29,.cls-3,.cls-30,.cls-31,.cls-33,.cls-5,.cls-8,.cls-9{fill:#2e86de;}.cls-1,.cls-7{opacity:0.59;}.cls-2{opacity:0.84;}.cls-3{opacity:0.65;}.cls-10,.cls-11,.cls-12,.cls-13,.cls-16,.cls-19,.cls-21,.cls-22,.cls-23,.cls-26,.cls-32,.cls-34,.cls-4,.cls-6,.cls-7{fill:#54a0ff;}.cls-4{opacity:0.12;}.cls-5{opacity:0.82;}.cls-6{opacity:0.36;}.cls-8{opacity:0.98;}.cls-9{opacity:0.72;}.cls-10{opacity:0.32;}.cls-11{opacity:0.37;}.cls-12{opacity:0.38;}.cls-13{opacity:0.35;}.cls-14{opacity:0.61;}.cls-15{opacity:0.9;}.cls-16{opacity:0.11;}.cls-17{opacity:0.99;}.cls-18{opacity:0.85;}.cls-19{opacity:0.2;}.cls-20{opacity:0.95;}.cls-21{opacity:0.47;}.cls-22{opacity:0.49;}.cls-23{opacity:0.33;}.cls-24{opacity:0.96;}.cls-25{opacity:0.58;}.cls-26{opacity:0.29;}.cls-27{opacity:0.91;}.cls-28{opacity:0.69;}.cls-29{opacity:0.7;}.cls-30{opacity:0.86;}.cls-31{opacity:0.55;}.cls-32{opacity:0.18;}</style></defs><title>Untitled-1</title><polygon class="cls-1" points="18.28 107.26 17.92 100.01 0 100.01 0.43 108.82 18.28 107.26"/><path class="cls-2" d="M20.86,121.54,20,118a21.89,21.89,0,0,1-.7-3.57L1.62,117.59a31.59,31.59,0,0,0,.85,4.34l1.1,4.3Z" transform="translate(0 0.01)"/><path class="cls-3" d="M25.9,135.16l-1.56-3.28-1.26-3.42L6.27,134.67s.78,2.08,1.55,4.16l1.89,4Z" transform="translate(0 0.01)"/><path class="cls-4" d="M33.24,147.68a22.37,22.37,0,0,1-2.06-3l-1.89-3.11-15.44,9.09,2.31,3.78a31.67,31.67,0,0,0,2.5,3.65Z" transform="translate(0 0.01)"/><path class="cls-5" d="M42.66,158.72c-.12.12-4.95-5.31-4.95-5.31L24.1,165.06s5.9,6.6,6,6.47Z" transform="translate(0 0.01)"/><polygon class="cls-6" points="53.87 167.94 48.05 163.59 36.7 177.45 43.78 182.75 53.87 167.94"/><path class="cls-7" d="M66.57,175s-6.59-3.08-6.5-3.24l-8.75,15.64c-.1.18,7.93,4,7.93,4Z" transform="translate(0 0.01)"/><path class="cls-8" d="M80.32,179.69l-3.53-.91a19.93,19.93,0,0,1-2.38-.75l-1.07-.39L67.5,194.58l1.31.47a26.12,26.12,0,0,0,2.91.91L76,197.08Z" transform="translate(0 0.01)"/><path class="cls-9" d="M94.65,181.91s-1.81,0-3.61-.26l-3.6-.54L84.7,198.82l4.38.64c2.19.27,4.4.33,4.4.33Z" transform="translate(0 0.01)"/><path class="cls-10" d="M109.15,181.65a5.78,5.78,0,0,1-1.12.13l-2.5.13-3.62.18L102.3,200l4.41-.22,3-.18a8.56,8.56,0,0,0,1.37-.15Z" transform="translate(0 0.01)"/><path class="cls-11" d="M123.4,178.78l-3.53.91-2.42.61a11.25,11.25,0,0,1-1.11.25l3.53,17.57s.54-.09,1.35-.3l3-.74,4.29-1.12Z" transform="translate(0 0.01)"/><path class="cls-12" d="M136.89,173.41,133.62,175a24.27,24.27,0,0,1-3.36,1.41l6.59,16.66a33.54,33.54,0,0,0,4.09-1.71l4-1.92Z" transform="translate(0 0.01)"/><path class="cls-13" d="M149.23,165.77l-2.91,2.17c-1.52,1-3.09,1.92-3.09,1.92l9.43,15.24s1.91-1.13,3.75-2.36l3.55-2.63Z" transform="translate(0 0.01)"/><path class="cls-7" d="M160,156.1a32.33,32.33,0,0,1-2.51,2.62l-2.68,2.45,12,13.35,3.26-3a42.89,42.89,0,0,0,3.06-3.19Z" transform="translate(0 0.01)"/><path class="cls-14" d="M169,144.69c.17.11-4.23,5.9-4.23,5.9l14.11,11s5.33-7.07,5.15-7.19Z" transform="translate(0 0.01)"/><path class="cls-15" d="M175.85,131.88l-3.14,6.55,15.83,8.4,1.94-4,1.88-4Z" transform="translate(0 0.01)"/><path class="cls-16" d="M180.23,118l-.9,3.52L178.7,124a6.29,6.29,0,0,1-.35,1.08l17.07,5.46a9.28,9.28,0,0,0,.42-1.32c.21-.8.5-1.88.78-3l1.1-4.3Z" transform="translate(0 0.01)"/><path class="cls-17" d="M182.1,103.63s-.1,1.81-.19,3.62a18,18,0,0,1-.26,2.48c-.1.68-.17,1.13-.17,1.13l17.76,2.35.2-1.37a25.74,25.74,0,0,0,.32-3l.24-4.41Z" transform="translate(0 0.01)"/><path class="cls-18" d="M181.48,89.14s.07.45.17,1.13a18,18,0,0,1,.26,2.48c.09,1.81.19,3.62.19,3.62l17.9-.78-.24-4.41a25.74,25.74,0,0,0-.32-3l-.2-1.37Z" transform="translate(0 0.01)"/><path class="cls-19" d="M178.35,75A6.29,6.29,0,0,1,178.7,76l.63,2.42.9,3.52,17.49-3.91-1.1-4.3c-.28-1.07-.57-2.15-.78-3a9.28,9.28,0,0,0-.42-1.32Z" transform="translate(0 0.01)"/><path class="cls-20" d="M172.71,61.56l3.14,6.56,16.51-7-1.88-4-1.94-4Z" transform="translate(0 0.01)"/><path class="cls-8" d="M164.77,49.41s4.4,5.79,4.23,5.9l15-9.76c.18-.12-5.15-7.19-5.15-7.19Z" transform="translate(0 0.01)"/><path class="cls-21" d="M154.85,38.83l2.68,2.45A32.33,32.33,0,0,1,160,43.9l13.08-12.24a42.89,42.89,0,0,0-3.06-3.19l-3.26-3Z" transform="translate(0 0.01)"/><path class="cls-5" d="M143.23,30.14s1.57.92,3.09,1.92l2.91,2.17L160,19.89l-3.55-2.63c-1.84-1.23-3.75-2.36-3.75-2.36Z" transform="translate(0 0.01)"/><path class="cls-22" d="M130.26,23.61A24.27,24.27,0,0,1,133.62,25l3.27,1.57,8-16-4-1.92A33.54,33.54,0,0,0,136.85,7Z" transform="translate(0 0.01)"/><path class="cls-19" d="M116.34,19.45a8.52,8.52,0,0,1,1.11.25l2.42.61,3.53.91L128.47,4l-4.29-1.12-3-.74c-.81-.21-1.35-.3-1.35-.3Z" transform="translate(0 0.01)"/><path class="cls-23" d="M101.91,17.91l3.62.18,2.5.13a5.78,5.78,0,0,1,1.12.13l2-17.81a8.56,8.56,0,0,0-1.37-.15l-3-.18L102.3,0Z" transform="translate(0 0.01)"/><path class="cls-24" d="M87.44,18.89l3.6-.54c1.8-.23,3.61-.26,3.61-.26L93.48.21s-2.21.06-4.4.33l-4.38.64Z" transform="translate(0 0.01)"/><path class="cls-25" d="M73.34,22.36,74.41,22a18.26,18.26,0,0,1,2.38-.75l3.53-.91L76,2.92,71.72,4A26.12,26.12,0,0,0,68.81,5l-1.31.47Z" transform="translate(0 0.01)"/><path class="cls-26" d="M60.07,28.26C60,28.1,66.57,25,66.57,25L59.25,8.66s-8,3.78-7.93,4Z" transform="translate(0 0.01)"/><polygon class="cls-27" points="48.05 36.42 53.87 32.07 43.78 17.26 36.7 22.56 48.05 36.42"/><path class="cls-28" d="M37.71,46.59s4.83-5.43,4.95-5.31L30.13,28.47c-.13-.13-6,6.46-6,6.46Z" transform="translate(0 0.01)"/><path class="cls-29" d="M29.29,58.42l1.89-3.11a22.37,22.37,0,0,1,2.06-3L18.66,41.9a31.67,31.67,0,0,0-2.5,3.65l-2.31,3.78Z" transform="translate(0 0.01)"/><path class="cls-30" d="M23.08,71.54l1.26-3.42,1.56-3.28L9.71,57.16l-1.89,4c-.77,2.08-1.55,4.15-1.55,4.15Z" transform="translate(0 0.01)"/><path class="cls-31" d="M19.26,85.55A21.89,21.89,0,0,1,20,82l.9-3.52L3.57,73.77l-1.1,4.3a31.59,31.59,0,0,0-.85,4.34Z" transform="translate(0 0.01)"/><polygon class="cls-32" points="17.92 100.01 18.28 92.75 0.43 91.19 0 100.01 17.92 100.01"/><path class="cls-33" d="M27.48,100s.09-1.78.25-5.11a43.65,43.65,0,0,1,.7-6.11c.2-1.19.34-2.49.64-3.84s.71-2.78,1.1-4.29a70.5,70.5,0,0,1,9.21-20.42,72.32,72.32,0,0,1,52.5-32.35,73.58,73.58,0,0,1,37.63,5.76,75.53,75.53,0,0,1,17.21,10.73,77.93,77.93,0,0,1,13.86,15.48,77.34,77.34,0,0,1,9,19.1,79.66,79.66,0,0,1,3.13,21,79.66,79.66,0,0,1-3.13,21,77.34,77.34,0,0,1-9,19.1,77.93,77.93,0,0,1-13.86,15.48,75.49,75.49,0,0,1-17.21,10.72,73.49,73.49,0,0,1-37.63,5.77,72.32,72.32,0,0,1-52.5-32.35,70.5,70.5,0,0,1-9.21-20.42c-.39-1.51-.76-2.94-1.1-4.29s-.44-2.65-.64-3.84a43.81,43.81,0,0,1-.7-6.11c-.16-3.33-.25-5.11-.25-5.11H38l.23,4.38a32.82,32.82,0,0,0,.59,5.23c.18,1,.28,2.13.54,3.29s.61,2.37.94,3.66A60.36,60.36,0,0,0,48.14,134a63,63,0,0,0,17.44,17.64,63.73,63.73,0,0,0,27.47,10.05,63.06,63.06,0,0,0,32.21-4.93A65.34,65.34,0,0,0,140,147.61a68,68,0,0,0,11.87-13.26,67.28,67.28,0,0,0,7.7-16.33,69.69,69.69,0,0,0,2.67-18,69.69,69.69,0,0,0-2.67-18,67.28,67.28,0,0,0-7.7-16.33A68,68,0,0,0,140,52.39a65.34,65.34,0,0,0-14.73-9.17,63.06,63.06,0,0,0-32.21-4.93A63.73,63.73,0,0,0,65.58,48.34,63,63,0,0,0,48.14,66a60.36,60.36,0,0,0-7.88,17.46c-.33,1.29-.65,2.51-.94,3.66s-.36,2.27-.54,3.29a32.82,32.82,0,0,0-.59,5.23L38,100Z" transform="translate(0 0.01)"/><path class="cls-34" d="M45.34,100s.07-1.34.21-3.87a28.68,28.68,0,0,1,.52-4.6c.16-.9.24-1.88.47-2.9s.54-2.09.84-3.23A54.72,54.72,0,0,1,69.69,54.47a56.35,56.35,0,0,1,24.19-8.84A55.54,55.54,0,0,1,122.26,50a57.42,57.42,0,0,1,13,8.08,59.92,59.92,0,0,1,10.46,11.69,59.55,59.55,0,0,1,6.78,14.38A61.55,61.55,0,0,1,154.85,100a61.55,61.55,0,0,1-2.36,15.88,59.55,59.55,0,0,1-6.78,14.38A60.21,60.21,0,0,1,135.25,142a57.42,57.42,0,0,1-13,8.08,55.54,55.54,0,0,1-28.38,4.34,56.35,56.35,0,0,1-24.19-8.84A54.72,54.72,0,0,1,47.38,114.6c-.3-1.14-.58-2.22-.84-3.23s-.31-2-.47-2.9a28.66,28.66,0,0,1-.52-4.61c-.14-2.52-.21-3.86-.21-3.86H47.7l.2,3.7a27.13,27.13,0,0,0,.51,4.41c.14.86.22,1.8.44,2.77l.8,3.09A52.38,52.38,0,0,0,71,143.56,53.91,53.91,0,0,0,94.15,152a53.27,53.27,0,0,0,27.16-4.16,55.08,55.08,0,0,0,12.42-7.73,57.76,57.76,0,0,0,10-11.18,57.1,57.1,0,0,0,6.49-13.77A59.25,59.25,0,0,0,152.49,100a59.25,59.25,0,0,0-2.26-15.19A57.1,57.1,0,0,0,143.74,71a57.76,57.76,0,0,0-10-11.18,55.08,55.08,0,0,0-12.42-7.73A53.27,53.27,0,0,0,94.15,48,53.91,53.91,0,0,0,71,56.44,52.38,52.38,0,0,0,49.65,86l-.8,3.09c-.22,1-.3,1.91-.44,2.77a27.13,27.13,0,0,0-.51,4.41l-.2,3.7Z" transform="translate(0 0.01)"/></svg>